# xmcd
#
# Track frame offsets:
#	150
#	29827
#	84556
#	116214
#	161247
#	174779
#	204964
#	234144
#
# Disc length: 3523 seconds
#
# Revision: 0
# Processed by: cddbd v1.5.2PL0 Copyright (c) Steve Scherf et al.
# Submitted via: audiograbber 1.83.01
#
DISCID=600dc108
DTITLE=Grateful Dead - 94-06-18 Autzen Stadium, Eugene OR
DYEAR=1900
DGENRE=
TTITLE0=Jack Straw
TTITLE1=Suagree
TTITLE2=It's All Over Now
TTITLE3=Tennessee Jed
TTITLE4=Me and My Uncle
TTITLE5=Maggie's Farm
TTITLE6=Candyman
TTITLE7=Easy Answers
EXTD=
EXTT0=
EXTT1=
EXTT2=
EXTT3=
EXTT4=
EXTT5=
EXTT6=
EXTT7=
PLAYORDER=
